<?xml version="1.0" standalone="no"?>
<svg xmlns:xlink="http://www.w3.org/1999/xlink" id="wave" style="transform:rotate(0deg); transition: 0.3s" viewBox="0 0 1440 240" version="1.1" xmlns="http://www.w3.org/2000/svg"><defs><linearGradient id="sw-gradient-0" x1="0" x2="0" y1="1" y2="0"><stop stop-color="rgba(41.785, 96.686, 182.463, 1)" offset="0%"/><stop stop-color="rgba(63.611, 92.002, 161.972, 1)" offset="100%"/></linearGradient></defs><path style="transform:translate(0, 0px); opacity:1" fill="url(#sw-gradient-0)" d="M0,72L60,68C120,64,240,56,360,80C480,104,600,160,720,180C840,200,960,184,1080,176C1200,168,1320,168,1440,140C1560,112,1680,56,1800,32C1920,8,2040,16,2160,32C2280,48,2400,72,2520,92C2640,112,2760,128,2880,148C3000,168,3120,192,3240,196C3360,200,3480,184,3600,168C3720,152,3840,136,3960,132C4080,128,4200,136,4320,128C4440,120,4560,96,4680,72C4800,48,4920,24,5040,44C5160,64,5280,128,5400,156C5520,184,5640,176,5760,168C5880,160,6000,152,6120,140C6240,128,6360,112,6480,116C6600,120,6720,144,6840,136C6960,128,7080,88,7200,84C7320,80,7440,112,7560,116C7680,120,7800,96,7920,96C8040,96,8160,120,8280,116C8400,112,8520,80,8580,64L8640,48L8640,240L8580,240C8520,240,8400,240,8280,240C8160,240,8040,240,7920,240C7800,240,7680,240,7560,240C7440,240,7320,240,7200,240C7080,240,6960,240,6840,240C6720,240,6600,240,6480,240C6360,240,6240,240,6120,240C6000,240,5880,240,5760,240C5640,240,5520,240,5400,240C5280,240,5160,240,5040,240C4920,240,4800,240,4680,240C4560,240,4440,240,4320,240C4200,240,4080,240,3960,240C3840,240,3720,240,3600,240C3480,240,3360,240,3240,240C3120,240,3000,240,2880,240C2760,240,2640,240,2520,240C2400,240,2280,240,2160,240C2040,240,1920,240,1800,240C1680,240,1560,240,1440,240C1320,240,1200,240,1080,240C960,240,840,240,720,240C600,240,480,240,360,240C240,240,120,240,60,240L0,240Z"/></svg>